<svg xmlns="http://www.w3.org/2000/svg" viewBox="0 0 1200 800" role="img" aria-label="Packaging factory hero banner">
  <defs>
    <linearGradient id="bg" x1="0" y1="0" x2="1" y2="1">
      <stop offset="0%" stop-color="#08172c" />
      <stop offset="100%" stop-color="#18497b" />
    </linearGradient>
    <linearGradient id="floor" x1="0" y1="0" x2="0" y2="1">
      <stop offset="0%" stop-color="#173c63" />
      <stop offset="100%" stop-color="#0d2b52" />
    </linearGradient>
    <linearGradient id="box" x1="0" y1="0" x2="1" y2="1">
      <stop offset="0%" stop-color="#eb7a1a" />
      <stop offset="100%" stop-color="#f29a37" />
    </linearGradient>
  </defs>
  <rect width="1200" height="800" fill="url(#bg)"/>
  <rect y="560" width="1200" height="240" fill="url(#floor)"/>
  <rect x="120" y="170" width="140" height="260" rx="22" fill="rgba(255,255,255,0.08)"/>
  <rect x="295" y="130" width="150" height="300" rx="22" fill="rgba(255,255,255,0.08)"/>
  <rect x="480" y="190" width="160" height="240" rx="22" fill="rgba(255,255,255,0.08)"/>
  <rect x="790" y="250" width="180" height="150" rx="18" fill="url(#box)"/>
  <rect x="720" y="200" width="160" height="200" rx="18" fill="#ffd5ad"/>
  <rect x="890" y="215" width="190" height="185" rx="18" fill="#fff0df"/>
  <rect x="700" y="400" width="120" height="120" rx="16" fill="url(#box)"/>
  <rect x="840" y="420" width="130" height="100" rx="16" fill="#ffd5ad"/>
  <rect x="990" y="435" width="120" height="85" rx="16" fill="#fff0df"/>
  <text x="90" y="630" fill="#ffffff" font-size="48" font-family="Arial, sans-serif" font-weight="800">Corrugated Box Manufacturing</text>
  <text x="90" y="690" fill="#d9e3ee" font-size="28" font-family="Arial, sans-serif">Bulk supply, printed cartons, duplex boxes, and heavy duty packaging solutions</text>
</svg>