<svg xmlns="http://www.w3.org/2000/svg" viewBox="0 0 1200 800" role="img" aria-label="Warehouse packaging illustration">
  <defs>
    <linearGradient id="bg" x1="0" y1="0" x2="1" y2="1">
      <stop offset="0%" stop-color="#eef3f8" />
      <stop offset="100%" stop-color="#d9e3ee" />
    </linearGradient>
    <linearGradient id="accent" x1="0" y1="0" x2="1" y2="1">
      <stop offset="0%" stop-color="#eb7a1a" />
      <stop offset="100%" stop-color="#f29a37" />
    </linearGradient>
  </defs>
  <rect width="1200" height="800" fill="url(#bg)"/>
  <rect y="560" width="1200" height="240" fill="#c9d7e7"/>
  <rect x="120" y="150" width="180" height="360" rx="18" fill="#123964"/>
  <rect x="340" y="150" width="180" height="360" rx="18" fill="#18497b"/>
  <rect x="560" y="150" width="180" height="360" rx="18" fill="#123964"/>
  <rect x="150" y="190" width="120" height="90" rx="12" fill="url(#accent)"/>
  <rect x="150" y="305" width="120" height="90" rx="12" fill="#ffd5ad"/>
  <rect x="150" y="420" width="120" height="60" rx="12" fill="#fff0df"/>
  <rect x="370" y="200" width="120" height="85" rx="12" fill="#fff0df"/>
  <rect x="370" y="315" width="120" height="85" rx="12" fill="url(#accent)"/>
  <rect x="370" y="430" width="120" height="50" rx="12" fill="#ffd5ad"/>
  <rect x="590" y="200" width="120" height="95" rx="12" fill="#ffd5ad"/>
  <rect x="590" y="320" width="120" height="80" rx="12" fill="#fff0df"/>
  <rect x="590" y="425" width="120" height="55" rx="12" fill="url(#accent)"/>
  <rect x="820" y="260" width="260" height="170" rx="24" fill="#ffffff" stroke="#123964" stroke-width="4"/>
  <text x="950" y="340" text-anchor="middle" fill="#123964" font-size="34" font-family="Arial, sans-serif" font-weight="700">Warehouse Ready Cartons</text>
  <text x="950" y="390" text-anchor="middle" fill="#6f8094" font-size="24" font-family="Arial, sans-serif">Stacked supply for dispatch and storage</text>
</svg>